  0
SECTION
  2
HEADER
  9
$ACADVER
  1
AC1009
  0
ENDSEC
  0
SECTION
  2
ENTITIES
  0
POLYLINE
  5
90
  8
Layer_0
  62
0
  66
1
  10
0
  20
0
  30
0
  0
VERTEX
  5
90
  8
Layer_0
  10
10.947922
  20
105.16418
  0
VERTEX
  5
91
  8
Layer_0
  10
11.003922
  20
104.77219
  42
0.35651108
  0
VERTEX
  5
92
  8
Layer_0
  10
14.92392
  20
101.58018
  0
VERTEX
  5
93
  8
Layer_0
  10
21.92392
  20
101.58018
  42
0.19975913
  0
VERTEX
  5
94
  8
Layer_0
  10
24.756027
  20
102.74805
  42
0.19973626
  0
VERTEX
  5
95
  8
Layer_0
  10
25.92392
  20
105.58018
  0
VERTEX
  5
96
  8
Layer_0
  10
25.92392
  20
111.58018
  0
VERTEX
  5
97
  8
Layer_0
  10
28.427917
  20
111.58018
  0
VERTEX
  5
98
  8
Layer_0
  10
28.427917
  20
116.38019
  42
0.22940922
  0
VERTEX
  5
99
  8
Layer_0
  10
28.107925
  20
116.84419
  42
0.10457174
  0
VERTEX
  5
9a
  8
Layer_0
  10
26.331924
  20
117.42819
  42
0.036644085
  0
VERTEX
  5
9b
  8
Layer_0
  10
24.427917
  20
117.58018
  0
VERTEX
  5
9c
  8
Layer_0
  10
12.427917
  20
117.58018
  42
0.067670287
  0
VERTEX
  5
9d
  8
Layer_0
  10
9.5959167
  20
117.22818
  42
0.11239941
  0
VERTEX
  5
9e
  8
Layer_0
  10
8.6039124
  20
116.73219
  42
0.21986256
  0
VERTEX
  5
9f
  8
Layer_0
  10
8.4279175
  20
116.38019
  0
VERTEX
  5
a0
  8
Layer_0
  10
8.4279175
  20
111.58018
  0
VERTEX
  5
a1
  8
Layer_0
  10
10.92392
  20
111.58018
  0
VERTEX
  5
a2
  8
Layer_0
  10
10.92392
  20
105.58018
  0
VERTEX
  5
a3
  8
Layer_0
  10
10.947922
  20
105.16418
  0
SEQEND
  0
POLYLINE
  5
a5
  8
Layer_0
  62
0
  66
1
  10
0
  20
0
  30
0
  0
VERTEX
  5
a5
  8
Layer_0
  10
33.947922
  20
105.66418
  0
VERTEX
  5
a6
  8
Layer_0
  10
34.003922
  20
105.27219
  42
0.35651108
  0
VERTEX
  5
a7
  8
Layer_0
  10
37.92392
  20
102.08018
  0
VERTEX
  5
a8
  8
Layer_0
  10
44.92392
  20
102.08018
  42
0.19975913
  0
VERTEX
  5
a9
  8
Layer_0
  10
47.756027
  20
103.24805
  42
0.19973626
  0
VERTEX
  5
aa
  8
Layer_0
  10
48.92392
  20
106.08018
  0
VERTEX
  5
ab
  8
Layer_0
  10
48.92392
  20
112.08018
  0
VERTEX
  5
ac
  8
Layer_0
  10
51.427917
  20
112.08018
  0
VERTEX
  5
ad
  8
Layer_0
  10
51.427917
  20
116.88019
  42
0.22940922
  0
VERTEX
  5
ae
  8
Layer_0
  10
51.107925
  20
117.34419
  42
0.10457174
  0
VERTEX
  5
af
  8
Layer_0
  10
49.331924
  20
117.92819
  42
0.036644085
  0
VERTEX
  5
b0
  8
Layer_0
  10
47.427917
  20
118.08018
  0
VERTEX
  5
b1
  8
Layer_0
  10
35.427917
  20
118.08018
  42
0.067670287
  0
VERTEX
  5
b2
  8
Layer_0
  10
32.595917
  20
117.72818
  42
0.11239941
  0
VERTEX
  5
b3
  8
Layer_0
  10
31.603912
  20
117.23219
  42
0.21986256
  0
VERTEX
  5
b4
  8
Layer_0
  10
31.427917
  20
116.88019
  0
VERTEX
  5
b5
  8
Layer_0
  10
31.427917
  20
112.08018
  0
VERTEX
  5
b6
  8
Layer_0
  10
33.92392
  20
112.08018
  0
VERTEX
  5
b7
  8
Layer_0
  10
33.92392
  20
106.08018
  0
VERTEX
  5
b8
  8
Layer_0
  10
33.947922
  20
105.66418
  0
SEQEND
  0
POLYLINE
  5
ba
  8
Layer_0
  62
0
  66
1
  10
0
  20
0
  30
0
  0
VERTEX
  5
ba
  8
Layer_0
  10
56.947922
  20
105.16418
  0
VERTEX
  5
bb
  8
Layer_0
  10
57.003922
  20
104.77219
  42
0.35651108
  0
VERTEX
  5
bc
  8
Layer_0
  10
60.92392
  20
101.58018
  0
VERTEX
  5
bd
  8
Layer_0
  10
67.92392
  20
101.58018
  42
0.19975913
  0
VERTEX
  5
be
  8
Layer_0
  10
70.756027
  20
102.74805
  42
0.19973626
  0
VERTEX
  5
bf
  8
Layer_0
  10
71.92392
  20
105.58018
  0
VERTEX
  5
c0
  8
Layer_0
  10
71.92392
  20
111.58018
  0
VERTEX
  5
c1
  8
Layer_0
  10
74.427917
  20
111.58018
  0
VERTEX
  5
c2
  8
Layer_0
  10
74.427917
  20
116.38019
  42
0.22940922
  0
VERTEX
  5
c3
  8
Layer_0
  10
74.107925
  20
116.84419
  42
0.10457174
  0
VERTEX
  5
c4
  8
Layer_0
  10
72.331924
  20
117.42819
  42
0.036644085
  0
VERTEX
  5
c5
  8
Layer_0
  10
70.427917
  20
117.58018
  0
VERTEX
  5
c6
  8
Layer_0
  10
58.427917
  20
117.58018
  42
0.067670287
  0
VERTEX
  5
c7
  8
Layer_0
  10
55.595917
  20
117.22818
  42
0.11239941
  0
VERTEX
  5
c8
  8
Layer_0
  10
54.603912
  20
116.73219
  42
0.21986256
  0
VERTEX
  5
c9
  8
Layer_0
  10
54.427917
  20
116.38019
  0
VERTEX
  5
ca
  8
Layer_0
  10
54.427917
  20
111.58018
  0
VERTEX
  5
cb
  8
Layer_0
  10
56.92392
  20
111.58018
  0
VERTEX
  5
cc
  8
Layer_0
  10
56.92392
  20
105.58018
  0
VERTEX
  5
cd
  8
Layer_0
  10
56.947922
  20
105.16418
  0
SEQEND
  0
POLYLINE
  5
cf
  8
Layer_0
  62
0
  66
1
  10
0
  20
0
  30
0
  0
VERTEX
  5
cf
  8
Layer_0
  10
79.947922
  20
105.66418
  0
VERTEX
  5
d0
  8
Layer_0
  10
80.003922
  20
105.27219
  42
0.35651108
  0
VERTEX
  5
d1
  8
Layer_0
  10
83.92392
  20
102.08018
  0
VERTEX
  5
d2
  8
Layer_0
  10
90.92392
  20
102.08018
  42
0.19975913
  0
VERTEX
  5
d3
  8
Layer_0
  10
93.756027
  20
103.24805
  42
0.19973626
  0
VERTEX
  5
d4
  8
Layer_0
  10
94.92392
  20
106.08018
  0
VERTEX
  5
d5
  8
Layer_0
  10
94.92392
  20
112.08018
  0
VERTEX
  5
d6
  8
Layer_0
  10
97.427917
  20
112.08018
  0
VERTEX
  5
d7
  8
Layer_0
  10
97.427917
  20
116.88019
  42
0.22940922
  0
VERTEX
  5
d8
  8
Layer_0
  10
97.107925
  20
117.34419
  42
0.10457174
  0
VERTEX
  5
d9
  8
Layer_0
  10
95.331924
  20
117.92819
  42
0.036644085
  0
VERTEX
  5
da
  8
Layer_0
  10
93.427917
  20
118.08018
  0
VERTEX
  5
db
  8
Layer_0
  10
81.427917
  20
118.08018
  42
0.067670287
  0
VERTEX
  5
dc
  8
Layer_0
  10
78.595917
  20
117.72818
  42
0.11239941
  0
VERTEX
  5
dd
  8
Layer_0
  10
77.603912
  20
117.23219
  42
0.21986256
  0
VERTEX
  5
de
  8
Layer_0
  10
77.427917
  20
116.88019
  0
VERTEX
  5
df
  8
Layer_0
  10
77.427917
  20
112.08018
  0
VERTEX
  5
e0
  8
Layer_0
  10
79.92392
  20
112.08018
  0
VERTEX
  5
e1
  8
Layer_0
  10
79.92392
  20
106.08018
  0
VERTEX
  5
e2
  8
Layer_0
  10
79.947922
  20
105.66418
  0
SEQEND
  0
POLYLINE
  5
e4
  8
Layer_0
  62
0
  66
1
  10
0
  20
0
  30
0
  0
VERTEX
  5
e4
  8
Layer_0
  10
102.94792
  20
105.16418
  0
VERTEX
  5
e5
  8
Layer_0
  10
103.00392
  20
104.77219
  42
0.35651108
  0
VERTEX
  5
e6
  8
Layer_0
  10
106.92392
  20
101.58018
  0
VERTEX
  5
e7
  8
Layer_0
  10
113.92392
  20
101.58018
  42
0.19975913
  0
VERTEX
  5
e8
  8
Layer_0
  10
116.75603
  20
102.74805
  42
0.19973626
  0
VERTEX
  5
e9
  8
Layer_0
  10
117.92392
  20
105.58018
  0
VERTEX
  5
ea
  8
Layer_0
  10
117.92392
  20
111.58018
  0
VERTEX
  5
eb
  8
Layer_0
  10
120.42792
  20
111.58018
  0
VERTEX
  5
ec
  8
Layer_0
  10
120.42792
  20
116.38019
  42
0.22940922
  0
VERTEX
  5
ed
  8
Layer_0
  10
120.10793
  20
116.84419
  42
0.10457174
  0
VERTEX
  5
ee
  8
Layer_0
  10
118.33192
  20
117.42819
  42
0.036644085
  0
VERTEX
  5
ef
  8
Layer_0
  10
116.42792
  20
117.58018
  0
VERTEX
  5
f0
  8
Layer_0
  10
104.42792
  20
117.58018
  42
0.067670287
  0
VERTEX
  5
f1
  8
Layer_0
  10
101.59592
  20
117.22818
  42
0.11239941
  0
VERTEX
  5
f2
  8
Layer_0
  10
100.60391
  20
116.73219
  42
0.21986256
  0
VERTEX
  5
f3
  8
Layer_0
  10
100.42792
  20
116.38019
  0
VERTEX
  5
f4
  8
Layer_0
  10
100.42792
  20
111.58018
  0
VERTEX
  5
f5
  8
Layer_0
  10
102.92392
  20
111.58018
  0
VERTEX
  5
f6
  8
Layer_0
  10
102.92392
  20
105.58018
  0
VERTEX
  5
f7
  8
Layer_0
  10
102.94792
  20
105.16418
  0
SEQEND
  0
POLYLINE
  5
f9
  8
Layer_0
  62
0
  66
1
  10
0
  20
0
  30
0
  0
VERTEX
  5
f9
  8
Layer_0
  10
125.94792
  20
105.66418
  0
VERTEX
  5
fa
  8
Layer_0
  10
126.00392
  20
105.27219
  42
0.35651108
  0
VERTEX
  5
fb
  8
Layer_0
  10
129.92392
  20
102.08018
  0
VERTEX
  5
fc
  8
Layer_0
  10
136.92392
  20
102.08018
  42
0.19975913
  0
VERTEX
  5
fd
  8
Layer_0
  10
139.75603
  20
103.24805
  42
0.19973626
  0
VERTEX
  5
fe
  8
Layer_0
  10
140.92392
  20
106.08018
  0
VERTEX
  5
ff
  8
Layer_0
  10
140.92392
  20
112.08018
  0
VERTEX
  5
100
  8
Layer_0
  10
143.42792
  20
112.08018
  0
VERTEX
  5
101
  8
Layer_0
  10
143.42792
  20
116.88019
  42
0.22940922
  0
VERTEX
  5
102
  8
Layer_0
  10
143.10793
  20
117.34419
  42
0.10457174
  0
VERTEX
  5
103
  8
Layer_0
  10
141.33192
  20
117.92819
  42
0.036644085
  0
VERTEX
  5
104
  8
Layer_0
  10
139.42792
  20
118.08018
  0
VERTEX
  5
105
  8
Layer_0
  10
127.42792
  20
118.08018
  42
0.067670287
  0
VERTEX
  5
106
  8
Layer_0
  10
124.59592
  20
117.72818
  42
0.11239941
  0
VERTEX
  5
107
  8
Layer_0
  10
123.60391
  20
117.23219
  42
0.21986256
  0
VERTEX
  5
108
  8
Layer_0
  10
123.42792
  20
116.88019
  0
VERTEX
  5
109
  8
Layer_0
  10
123.42792
  20
112.08018
  0
VERTEX
  5
10a
  8
Layer_0
  10
125.92392
  20
112.08018
  0
VERTEX
  5
10b
  8
Layer_0
  10
125.92392
  20
106.08018
  0
VERTEX
  5
10c
  8
Layer_0
  10
125.94792
  20
105.66418
  0
SEQEND
  0
POLYLINE
  5
10e
  8
Layer_0
  62
0
  66
1
  10
0
  20
0
  30
0
  0
VERTEX
  5
10e
  8
Layer_0
  10
86.608765
  20
99.99601
  0
VERTEX
  5
10f
  8
Layer_0
  10
71.868805
  20
99.99601
  42
0.41421358
  0
VERTEX
  5
110
  8
Layer_0
  10
69.868805
  20
97.99601
  0
VERTEX
  5
111
  8
Layer_0
  10
69.868805
  20
97.00724
  42
-0.41421242
  0
VERTEX
  5
112
  8
Layer_0
  10
67.86882
  20
95.00724
  0
VERTEX
  5
113
  8
Layer_0
  10
31.86879
  20
95.007011
  42
-0.41421116
  0
VERTEX
  5
114
  8
Layer_0
  10
29.868774
  20
97.006996
  0
VERTEX
  5
115
  8
Layer_0
  10
29.868774
  20
98.006996
  42
0.41421371
  0
VERTEX
  5
116
  8
Layer_0
  10
27.868759
  20
100.00699
  0
VERTEX
  5
117
  8
Layer_0
  10
9.8687592
  20
100.00687
  0
VERTEX
  5
118
  8
Layer_0
  10
9.8692627
  20
20.003197
  42
0.41410632
  0
VERTEX
  5
119
  8
Layer_0
  10
19.865646
  20
10.003265
  0
VERTEX
  5
11a
  8
Layer_0
  10
61.94133
  20
9.98806
  42
0.38647181
  0
VERTEX
  5
11b
  8
Layer_0
  10
71.898926
  20
19.029556
  0
VERTEX
  5
11c
  8
Layer_0
  10
78.356827
  20
86.094261
  42
-0.24606551
  0
VERTEX
  5
11d
  8
Layer_0
  10
79.37178
  20
87.648331
  42
-0.24606557
  0
VERTEX
  5
11e
  8
Layer_0
  10
81.227234
  20
87.698738
  0
VERTEX
  5
11f
  8
Layer_0
  10
83.225967
  20
86.719933
  42
-0.084302707
  0
VERTEX
  5
120
  8
Layer_0
  10
83.769608
  20
86.328857
  0
VERTEX
  5
121
  8
Layer_0
  10
83.879501
  20
85.803734
  42
0.24722399
  0
VERTEX
  5
122
  8
Layer_0
  10
84.593475
  20
84.082016
  0
VERTEX
  5
123
  8
Layer_0
  10
86.345657
  20
82.627121
  42
0.41421246
  0
VERTEX
  5
124
  8
Layer_0
  10
89.162018
  20
82.888199
  0
VERTEX
  5
125
  8
Layer_0
  10
95.250565
  20
90.220879
  42
0.41422247
  0
VERTEX
  5
126
  8
Layer_0
  10
94.989502
  20
93.037231
  0
VERTEX
  5
127
  8
Layer_0
  10
86.608765
  20
99.99601
  0
SEQEND
  0
POLYLINE
  5
129
  8
Layer_0
  62
0
  66
1
  10
0
  20
0
  30
0
  0
VERTEX
  5
129
  8
Layer_0
  10
32.243423
  20
82.38073
  42
0.40673657
  0
VERTEX
  5
12a
  8
Layer_0
  10
22.499451
  20
72.383942
  0
VERTEX
  5
12b
  8
Layer_0
  10
22.499702
  20
32.62915
  42
0.41410632
  0
VERTEX
  5
12c
  8
Layer_0
  10
32.496078
  20
22.629211
  0
VERTEX
  5
12d
  8
Layer_0
  10
50.469055
  20
22.622711
  42
0.38647097
  0
VERTEX
  5
12e
  8
Layer_0
  10
60.426636
  20
31.664207
  0
VERTEX
  5
12f
  8
Layer_0
  10
64.254684
  20
71.418137
  42
0.21141748
  0
VERTEX
  5
130
  8
Layer_0
  10
61.702896
  20
79.100319
  42
0.21141845
  0
VERTEX
  5
131
  8
Layer_0
  10
54.300659
  20
82.376648
  0
VERTEX
  5
132
  8
Layer_0
  10
31.868774
  20
82.376503
  0
SEQEND
  0
POLYLINE
  5
134
  8
Layer_0
  62
0
  66
1
  10
0
  20
0
  30
0
  0
VERTEX
  5
134
  8
Layer_0
  10
70.976547
  20
69.984909
  0
VERTEX
  5
135
  8
Layer_0
  10
67.976547
  20
69.984909
  0
VERTEX
  5
136
  8
Layer_0
  10
67.976547
  20
89.984909
  0
VERTEX
  5
137
  8
Layer_0
  10
70.976547
  20
89.984909
  0
VERTEX
  5
138
  8
Layer_0
  10
70.976547
  20
69.984909
  0
SEQEND
  0
POLYLINE
  5
13a
  8
Layer_0
  62
0
  66
1
  10
0
  20
0
  30
0
  0
VERTEX
  5
13a
  8
Layer_0
  10
17.976547
  20
89.984917
  0
VERTEX
  5
13b
  8
Layer_0
  10
17.976547
  20
69.984917
  0
VERTEX
  5
13c
  8
Layer_0
  10
14.976547
  20
69.984917
  0
VERTEX
  5
13d
  8
Layer_0
  10
14.976547
  20
89.984917
  0
VERTEX
  5
13e
  8
Layer_0
  10
17.976547
  20
89.984917
  0
SEQEND
  0
POLYLINE
  5
140
  8
Layer_0
  62
0
  66
1
  10
0
  20
0
  30
0
  0
VERTEX
  5
140
  8
Layer_0
  10
17.97654
  20
44.984917
  0
VERTEX
  5
141
  8
Layer_0
  10
17.97654
  20
24.984917
  0
VERTEX
  5
142
  8
Layer_0
  10
14.97654
  20
24.984917
  0
VERTEX
  5
143
  8
Layer_0
  10
14.97654
  20
44.984917
  0
VERTEX
  5
144
  8
Layer_0
  10
17.97654
  20
44.984917
  0
SEQEND
  0
POLYLINE
  5
146
  8
Layer_0
  62
0
  66
1
  10
0
  20
0
  30
0
  0
VERTEX
  5
146
  8
Layer_0
  10
83.094543
  20
9.0030451
  0
VERTEX
  5
147
  8
Layer_0
  10
97.834503
  20
9.0030422
  42
0.41421358
  0
VERTEX
  5
148
  8
Layer_0
  10
99.834503
  20
11.003042
  0
VERTEX
  5
149
  8
Layer_0
  10
99.834503
  20
11.991814
  42
-0.41421242
  0
VERTEX
  5
14a
  8
Layer_0
  10
101.83449
  20
13.991814
  0
VERTEX
  5
14b
  8
Layer_0
  10
137.83452
  20
13.992037
  42
-0.41421116
  0
VERTEX
  5
14c
  8
Layer_0
  10
139.83453
  20
11.992049
  0
VERTEX
  5
14d
  8
Layer_0
  10
139.83453
  20
10.992049
  42
0.41421371
  0
VERTEX
  5
14e
  8
Layer_0
  10
141.83455
  20
8.9920616
  0
VERTEX
  5
14f
  8
Layer_0
  10
159.83455
  20
8.9921732
  0
VERTEX
  5
150
  8
Layer_0
  10
159.83405
  20
88.99585
  42
0.41410632
  0
VERTEX
  5
151
  8
Layer_0
  10
149.83768
  20
98.995781
  0
VERTEX
  5
152
  8
Layer_0
  10
107.76198
  20
99.010986
  42
0.38647181
  0
VERTEX
  5
153
  8
Layer_0
  10
97.804398
  20
89.969498
  0
VERTEX
  5
154
  8
Layer_0
  10
91.346481
  20
22.904795
  42
-0.24606551
  0
VERTEX
  5
155
  8
Layer_0
  10
90.331528
  20
21.350723
  42
-0.24606557
  0
VERTEX
  5
156
  8
Layer_0
  10
88.476074
  20
21.300312
  0
VERTEX
  5
157
  8
Layer_0
  10
86.477341
  20
22.279121
  42
-0.084302707
  0
VERTEX
  5
158
  8
Layer_0
  10
85.933701
  20
22.670197
  0
VERTEX
  5
159
  8
Layer_0
  10
85.823807
  20
23.195322
  42
0.24722399
  0
VERTEX
  5
15a
  8
Layer_0
  10
85.109833
  20
24.917038
  0
VERTEX
  5
15b
  8
Layer_0
  10
83.357651
  20
26.371931
  42
0.41421246
  0
VERTEX
  5
15c
  8
Layer_0
  10
80.54129
  20
26.110859
  0
VERTEX
  5
15d
  8
Layer_0
  10
74.452744
  20
18.778175
  42
0.41422247
  0
VERTEX
  5
15e
  8
Layer_0
  10
74.713806
  20
15.961824
  0
VERTEX
  5
15f
  8
Layer_0
  10
83.094543
  20
9.0030451
  0
SEQEND
  0
POLYLINE
  5
161
  8
Layer_0
  62
0
  66
1
  10
0
  20
0
  30
0
  0
VERTEX
  5
161
  8
Layer_0
  10
137.45988
  20
26.618319
  42
0.40673657
  0
VERTEX
  5
162
  8
Layer_0
  10
147.20386
  20
36.615105
  0
VERTEX
  5
163
  8
Layer_0
  10
147.20361
  20
76.369896
  42
0.41410632
  0
VERTEX
  5
164
  8
Layer_0
  10
137.20724
  20
86.369843
  0
VERTEX
  5
165
  8
Layer_0
  10
119.23427
  20
86.376335
  42
0.38647097
  0
VERTEX
  5
166
  8
Layer_0
  10
109.27669
  20
77.334839
  0
VERTEX
  5
167
  8
Layer_0
  10
105.44862
  20
37.58091
  42
0.21141748
  0
VERTEX
  5
168
  8
Layer_0
  10
108.00041
  20
29.898733
  42
0.21141845
  0
VERTEX
  5
169
  8
Layer_0
  10
115.40265
  20
26.622406
  0
VERTEX
  5
16a
  8
Layer_0
  10
137.83453
  20
26.622545
  0
SEQEND
  0
POLYLINE
  5
16c
  8
Layer_0
  62
0
  66
1
  10
0
  20
0
  30
0
  0
VERTEX
  5
16c
  8
Layer_0
  10
98.726761
  20
39.014141
  0
VERTEX
  5
16d
  8
Layer_0
  10
101.72676
  20
39.014141
  0
VERTEX
  5
16e
  8
Layer_0
  10
101.72676
  20
19.014141
  0
VERTEX
  5
16f
  8
Layer_0
  10
98.726761
  20
19.014141
  0
VERTEX
  5
170
  8
Layer_0
  10
98.726761
  20
39.014141
  0
SEQEND
  0
POLYLINE
  5
172
  8
Layer_0
  62
0
  66
1
  10
0
  20
0
  30
0
  0
VERTEX
  5
172
  8
Layer_0
  10
151.72676
  20
19.014133
  0
VERTEX
  5
173
  8
Layer_0
  10
151.72678
  20
39.01413
  0
VERTEX
  5
174
  8
Layer_0
  10
154.72678
  20
39.01413
  0
VERTEX
  5
175
  8
Layer_0
  10
154.72676
  20
19.014133
  0
VERTEX
  5
176
  8
Layer_0
  10
151.72676
  20
19.014133
  0
SEQEND
  0
POLYLINE
  5
178
  8
Layer_0
  62
0
  66
1
  10
0
  20
0
  30
0
  0
VERTEX
  5
178
  8
Layer_0
  10
151.72678
  20
64.01413
  0
VERTEX
  5
179
  8
Layer_0
  10
151.72678
  20
84.01413
  0
VERTEX
  5
17a
  8
Layer_0
  10
154.72678
  20
84.01413
  0
VERTEX
  5
17b
  8
Layer_0
  10
154.72678
  20
64.01413
  0
VERTEX
  5
17c
  8
Layer_0
  10
151.72678
  20
64.01413
  0
SEQEND
  0
POLYLINE
  5
17e
  8
Layer_0
  62
0
  66
1
  10
0
  20
0
  30
0
  0
VERTEX
  5
17e
  8
Layer_0
  10
184.94186
  20
163.51326
  0
VERTEX
  5
17f
  8
Layer_0
  10
184.94186
  20
160.51326
  0
VERTEX
  5
180
  8
Layer_0
  10
169.94186
  20
160.51326
  0
VERTEX
  5
181
  8
Layer_0
  10
169.94186
  20
163.51326
  0
VERTEX
  5
182
  8
Layer_0
  10
184.94186
  20
163.51326
  0
SEQEND
  0
POLYLINE
  5
184
  8
Layer_0
  62
0
  66
1
  10
0
  20
0
  30
0
  0
VERTEX
  5
184
  8
Layer_0
  10
187.44209
  20
157.49998
  0
VERTEX
  5
185
  8
Layer_0
  10
187.44209
  20
169.49998
  42
0.24844121
  0
VERTEX
  5
186
  8
Layer_0
  10
186.19502
  20
171.66502
  42
0.15891232
  0
VERTEX
  5
187
  8
Layer_0
  10
183.44209
  20
172.49998
  0
VERTEX
  5
188
  8
Layer_0
  10
171.44209
  20
172.49998
  42
0.21569786
  0
VERTEX
  5
189
  8
Layer_0
  10
168.02852
  20
171.07787
  42
0.16381196
  0
VERTEX
  5
18a
  8
Layer_0
  10
167.44209
  20
169.49998
  0
VERTEX
  5
18b
  8
Layer_0
  10
167.44209
  20
157.49998
  0
VERTEX
  5
18c
  8
Layer_0
  10
162.44209
  20
157.49998
  0
VERTEX
  5
18d
  8
Layer_0
  10
162.44209
  20
17.5
  0
VERTEX
  5
18e
  8
Layer_0
  10
167.44209
  20
17.5
  0
VERTEX
  5
18f
  8
Layer_0
  10
167.44209
  20
5.5
  42
0.24825997
  0
VERTEX
  5
190
  8
Layer_0
  10
168.68916
  20
3.3347168
  42
0.15933606
  0
VERTEX
  5
191
  8
Layer_0
  10
171.44209
  20
2.5
  0
VERTEX
  5
192
  8
Layer_0
  10
183.44209
  20
2.5
  42
0.19633435
  0
VERTEX
  5
193
  8
Layer_0
  10
186.6916
  20
3.7380371
  42
0.18716041
  0
VERTEX
  5
194
  8
Layer_0
  10
187.44209
  20
5.5
  0
VERTEX
  5
195
  8
Layer_0
  10
187.44209
  20
17.5
  0
VERTEX
  5
196
  8
Layer_0
  10
192.44209
  20
17.5
  0
VERTEX
  5
197
  8
Layer_0
  10
192.44209
  20
57.500244
  0
VERTEX
  5
198
  8
Layer_0
  10
195.44209
  20
57.500244
  0
VERTEX
  5
199
  8
Layer_0
  10
195.44209
  20
72.500244
  0
VERTEX
  5
19a
  8
Layer_0
  10
192.44209
  20
72.500244
  0
VERTEX
  5
19b
  8
Layer_0
  10
192.44209
  20
102.50024
  0
VERTEX
  5
19c
  8
Layer_0
  10
195.44209
  20
102.50024
  0
VERTEX
  5
19d
  8
Layer_0
  10
195.44209
  20
117.50024
  0
VERTEX
  5
19e
  8
Layer_0
  10
192.44209
  20
117.50024
  0
VERTEX
  5
19f
  8
Layer_0
  10
192.44209
  20
157.49998
  0
VERTEX
  5
1a0
  8
Layer_0
  10
187.44209
  20
157.49998
  0
SEQEND
  0
POLYLINE
  5
1a2
  8
Layer_0
  62
0
  66
1
  10
0
  20
0
  30
0
  0
VERTEX
  5
1a2
  8
Layer_0
  10
169.94185
  20
14.487549
  0
VERTEX
  5
1a3
  8
Layer_0
  10
184.94185
  20
14.487549
  0
VERTEX
  5
1a4
  8
Layer_0
  10
184.94185
  20
11.487549
  0
VERTEX
  5
1a5
  8
Layer_0
  10
169.94185
  20
11.487549
  0
VERTEX
  5
1a6
  8
Layer_0
  10
169.94185
  20
14.487549
  0
SEQEND
  0
POLYLINE
  5
1a8
  8
Layer_0
  62
0
  66
1
  10
0
  20
0
  30
0
  0
VERTEX
  5
1a8
  8
Layer_0
  10
219.94186
  20
163.51326
  0
VERTEX
  5
1a9
  8
Layer_0
  10
219.94186
  20
160.51326
  0
VERTEX
  5
1aa
  8
Layer_0
  10
204.94186
  20
160.51326
  0
VERTEX
  5
1ab
  8
Layer_0
  10
204.94186
  20
163.51326
  0
VERTEX
  5
1ac
  8
Layer_0
  10
219.94186
  20
163.51326
  0
SEQEND
  0
POLYLINE
  5
1ae
  8
Layer_0
  62
0
  66
1
  10
0
  20
0
  30
0
  0
VERTEX
  5
1ae
  8
Layer_0
  10
222.44209
  20
157.49998
  0
VERTEX
  5
1af
  8
Layer_0
  10
222.44209
  20
169.49998
  42
0.24844121
  0
VERTEX
  5
1b0
  8
Layer_0
  10
221.19502
  20
171.66502
  42
0.15891232
  0
VERTEX
  5
1b1
  8
Layer_0
  10
218.44209
  20
172.49998
  0
VERTEX
  5
1b2
  8
Layer_0
  10
206.44209
  20
172.49998
  42
0.21569786
  0
VERTEX
  5
1b3
  8
Layer_0
  10
203.02852
  20
171.07787
  42
0.16381196
  0
VERTEX
  5
1b4
  8
Layer_0
  10
202.44209
  20
169.49998
  0
VERTEX
  5
1b5
  8
Layer_0
  10
202.44209
  20
157.49998
  0
VERTEX
  5
1b6
  8
Layer_0
  10
197.44209
  20
157.49998
  0
VERTEX
  5
1b7
  8
Layer_0
  10
197.44209
  20
17.5
  0
VERTEX
  5
1b8
  8
Layer_0
  10
202.44209
  20
17.5
  0
VERTEX
  5
1b9
  8
Layer_0
  10
202.44209
  20
5.5
  42
0.24825997
  0
VERTEX
  5
1ba
  8
Layer_0
  10
203.68916
  20
3.3347168
  42
0.15933606
  0
VERTEX
  5
1bb
  8
Layer_0
  10
206.44209
  20
2.5
  0
VERTEX
  5
1bc
  8
Layer_0
  10
218.44209
  20
2.5
  42
0.19633435
  0
VERTEX
  5
1bd
  8
Layer_0
  10
221.6916
  20
3.7380371
  42
0.18716041
  0
VERTEX
  5
1be
  8
Layer_0
  10
222.44209
  20
5.5
  0
VERTEX
  5
1bf
  8
Layer_0
  10
222.44209
  20
17.5
  0
VERTEX
  5
1c0
  8
Layer_0
  10
227.44209
  20
17.5
  0
VERTEX
  5
1c1
  8
Layer_0
  10
227.44209
  20
57.500244
  0
VERTEX
  5
1c2
  8
Layer_0
  10
230.44209
  20
57.500244
  0
VERTEX
  5
1c3
  8
Layer_0
  10
230.44209
  20
72.500244
  0
VERTEX
  5
1c4
  8
Layer_0
  10
227.44209
  20
72.500244
  0
VERTEX
  5
1c5
  8
Layer_0
  10
227.44209
  20
102.50024
  0
VERTEX
  5
1c6
  8
Layer_0
  10
230.44209
  20
102.50024
  0
VERTEX
  5
1c7
  8
Layer_0
  10
230.44209
  20
117.50024
  0
VERTEX
  5
1c8
  8
Layer_0
  10
227.44209
  20
117.50024
  0
VERTEX
  5
1c9
  8
Layer_0
  10
227.44209
  20
157.49998
  0
VERTEX
  5
1ca
  8
Layer_0
  10
222.44209
  20
157.49998
  0
SEQEND
  0
POLYLINE
  5
1cc
  8
Layer_0
  62
0
  66
1
  10
0
  20
0
  30
0
  0
VERTEX
  5
1cc
  8
Layer_0
  10
204.94185
  20
14.487549
  0
VERTEX
  5
1cd
  8
Layer_0
  10
219.94185
  20
14.487549
  0
VERTEX
  5
1ce
  8
Layer_0
  10
219.94185
  20
11.487549
  0
VERTEX
  5
1cf
  8
Layer_0
  10
204.94185
  20
11.487549
  0
VERTEX
  5
1d0
  8
Layer_0
  10
204.94185
  20
14.487549
  0
SEQEND
  0
POLYLINE
  5
1d2
  8
Layer_0
  62
0
  66
1
  10
0
  20
0
  30
0
  0
VERTEX
  5
1d2
  8
Layer_0
  10
254.94186
  20
163.51326
  0
VERTEX
  5
1d3
  8
Layer_0
  10
254.94186
  20
160.51326
  0
VERTEX
  5
1d4
  8
Layer_0
  10
239.94186
  20
160.51326
  0
VERTEX
  5
1d5
  8
Layer_0
  10
239.94186
  20
163.51326
  0
VERTEX
  5
1d6
  8
Layer_0
  10
254.94186
  20
163.51326
  0
SEQEND
  0
POLYLINE
  5
1d8
  8
Layer_0
  62
0
  66
1
  10
0
  20
0
  30
0
  0
VERTEX
  5
1d8
  8
Layer_0
  10
257.44208
  20
157.49998
  0
VERTEX
  5
1d9
  8
Layer_0
  10
257.44208
  20
169.49998
  42
0.24844121
  0
VERTEX
  5
1da
  8
Layer_0
  10
256.19501
  20
171.66502
  42
0.15891232
  0
VERTEX
  5
1db
  8
Layer_0
  10
253.44209
  20
172.49998
  0
VERTEX
  5
1dc
  8
Layer_0
  10
241.44209
  20
172.49998
  42
0.21569786
  0
VERTEX
  5
1dd
  8
Layer_0
  10
238.02852
  20
171.07787
  42
0.16381196
  0
VERTEX
  5
1de
  8
Layer_0
  10
237.44209
  20
169.49998
  0
VERTEX
  5
1df
  8
Layer_0
  10
237.44209
  20
157.49998
  0
VERTEX
  5
1e0
  8
Layer_0
  10
232.44209
  20
157.49998
  0
VERTEX
  5
1e1
  8
Layer_0
  10
232.44209
  20
17.5
  0
VERTEX
  5
1e2
  8
Layer_0
  10
237.44209
  20
17.5
  0
VERTEX
  5
1e3
  8
Layer_0
  10
237.44209
  20
5.5
  42
0.24825997
  0
VERTEX
  5
1e4
  8
Layer_0
  10
238.68916
  20
3.3347168
  42
0.15933606
  0
VERTEX
  5
1e5
  8
Layer_0
  10
241.44209
  20
2.5
  0
VERTEX
  5
1e6
  8
Layer_0
  10
253.44209
  20
2.5
  42
0.19633435
  0
VERTEX
  5
1e7
  8
Layer_0
  10
256.69159
  20
3.7380371
  42
0.18716041
  0
VERTEX
  5
1e8
  8
Layer_0
  10
257.44208
  20
5.5
  0
VERTEX
  5
1e9
  8
Layer_0
  10
257.44208
  20
17.5
  0
VERTEX
  5
1ea
  8
Layer_0
  10
262.44208
  20
17.5
  0
VERTEX
  5
1eb
  8
Layer_0
  10
262.44208
  20
57.500244
  0
VERTEX
  5
1ec
  8
Layer_0
  10
265.44208
  20
57.500244
  0
VERTEX
  5
1ed
  8
Layer_0
  10
265.44208
  20
72.500244
  0
VERTEX
  5
1ee
  8
Layer_0
  10
262.44208
  20
72.500244
  0
VERTEX
  5
1ef
  8
Layer_0
  10
262.44208
  20
102.50024
  0
VERTEX
  5
1f0
  8
Layer_0
  10
265.44208
  20
102.50024
  0
VERTEX
  5
1f1
  8
Layer_0
  10
265.44208
  20
117.50024
  0
VERTEX
  5
1f2
  8
Layer_0
  10
262.44208
  20
117.50024
  0
VERTEX
  5
1f3
  8
Layer_0
  10
262.44208
  20
157.49998
  0
VERTEX
  5
1f4
  8
Layer_0
  10
257.44208
  20
157.49998
  0
SEQEND
  0
POLYLINE
  5
1f6
  8
Layer_0
  62
0
  66
1
  10
0
  20
0
  30
0
  0
VERTEX
  5
1f6
  8
Layer_0
  10
239.94185
  20
14.487549
  0
VERTEX
  5
1f7
  8
Layer_0
  10
254.94185
  20
14.487549
  0
VERTEX
  5
1f8
  8
Layer_0
  10
254.94185
  20
11.487549
  0
VERTEX
  5
1f9
  8
Layer_0
  10
239.94185
  20
11.487549
  0
VERTEX
  5
1fa
  8
Layer_0
  10
239.94185
  20
14.487549
  0
SEQEND
  0
ENDSEC
  0
EOF
