<svg viewBox="0 0 24 24"><path d="M3,15H13A1,1 0 0,1 14,16A1,1 0 0,1 13,17H3A1,1 0 0,1 2,16A1,1 0 0,1 3,15M16,15H21A1,1 0 0,1 22,16A1,1 0 0,1 21,17H16A1,1 0 0,1 15,16A1,1 0 0,1 16,15M1,12A1,1 0 0,1 2,11H21A1,1 0 0,1 22,12A1,1 0 0,1 21,13H2A1,1 0 0,1 1,12M5,19H10A1,1 0 0,1 11,20A1,1 0 0,1 10,21H5A1,1 0 0,1 4,20A1,1 0 0,1 5,19M13,19H18A1,1 0 0,1 19,20A1,1 0 0,1 18,21H13A1,1 0 0,1 12,20A1,1 0 0,1 13,19M6,6C7,3.65 9.3,2 12,2C15.43,2 18.24,4.66 18.5,8.03L19,8A4,4 0 0,1 23,12H21A2,2 0 0,0 19,10H17V9A5,5 0 0,0 12,4C9.5,4 7.45,5.82 7.06,8.19C6.73,8.07 6.37,8 6,8A3,3 0 0,0 3,11H1A5,5 0 0,1 6,6Z"/></svg>
