<svg viewBox="0 0 24 24"><path d="M6,14.03A1,1 0 0,1 7,15.03C7,15.58 6.55,16.03 6,16.03C3.24,16.03 1,13.79 1,11.03C1,8.27 3.24,6.03 6,6.03C7,3.68 9.3,2.03 12,2.03C15.43,2.03 18.24,4.69 18.5,8.06L19,8.03A4,4 0 0,1 23,12.03C23,14.24 21.21,16.03 19,16.03H18C17.45,16.03 17,15.58 17,15.03C17,14.47 17.45,14.03 18,14.03H19A2,2 0 0,0 21,12.03A2,2 0 0,0 19,10.03H17V9.03C17,6.27 14.76,4.03 12,4.03C9.5,4.03 7.45,5.84 7.06,8.21C6.73,8.09 6.37,8.03 6,8.03A3,3 0 0,0 3,11.03A3,3 0 0,0 6,14.03M12,14.15C12.18,14.39 12.37,14.66 12.56,14.94C13,15.56 14,17.03 14,18C14,19.11 13.1,20 12,20A2,2 0 0,1 10,18C10,17.03 11,15.56 11.44,14.94C11.63,14.66 11.82,14.4 12,14.15Z"/></svg>
