<svg viewBox="0 0 24 24"><path d="M6,14A1,1 0 0,1 7,15A1,1 0 0,1 6,16A5,5 0 0,1 1,11A5,5 0 0,1 6,6C7,3.65 9.3,2 12,2C15.43,2 18.24,4.66 18.5,8.03L19,8A4,4 0 0,1 23,12A4,4 0 0,1 19,16H18A1,1 0 0,1 17,15A1,1 0 0,1 18,14H19A2,2 0 0,0 21,12A2,2 0 0,0 19,10H17V9A5,5 0 0,0 12,4C9.5,4 7.45,5.82 7.06,8.19C6.73,8.07 6.37,8 6,8A3,3 0 0,0 3,11A3,3 0 0,0 6,14M14.83,15.67L16.24,17.08L14.83,18.5L13.41,17.08L14.83,15.67M6.83,15.67L8.24,17.08L6.83,18.5L5.41,17.08L6.83,15.67M10.83,19.67L12.24,21.08L10.83,22.5L9.41,21.08L10.83,19.67Z"/></svg>
