<svg viewBox="0 0 24 24"><path d="M6,14A1,1 0 0,1 7,15A1,1 0 0,1 6,16A5,5 0 0,1 1,11A5,5 0 0,1 6,6C7,3.65 9.3,2 12,2C15.43,2 18.24,4.66 18.5,8.03L19,8A4,4 0 0,1 23,12A4,4 0 0,1 19,16H18A1,1 0 0,1 17,15A1,1 0 0,1 18,14H19A2,2 0 0,0 21,12A2,2 0 0,0 19,10H17V9A5,5 0 0,0 12,4C9.5,4 7.45,5.82 7.06,8.19C6.73,8.07 6.37,8 6,8A3,3 0 0,0 3,11A3,3 0 0,0 6,14M7.88,18.07L10,16.29V19.29L7.88,21.07L7.03,20.04L8.39,18.93L7.03,17.82L7.88,16.79L10,18.57V15.57L7.88,17.35L7.03,16.32L8.39,15.21L7.03,14.1L7.88,13.07L10,14.85V12H11V14.85L13.12,13.07L13.97,14.1L12.61,15.21L13.97,16.32L13.12,17.35L11,15.57V18.57L13.12,16.79L13.97,17.82L12.61,18.93L13.97,20.04L13.12,21.07L11,19.29V22H10V19.29L7.88,21.07L7.03,20.04L8.39,18.93L7.03,17.82L7.88,16.79Z"/></svg>
